HIERARCHY
ROOT Hips
{
    OFFSET 0.0 0.0 0.0
    CHANNELS 6 Xposition Yposition Zposition Zrotation Xrotation Yrotation
    JOINT LeftHipJoint
    {
        OFFSET 0.1 0.0 0.0
        CHANNELS 3 Zrotation Xrotation Yrotation
        JOINT LeftUpLeg
        {
            OFFSET 126.05981600232468 0.0 0.0
            CHANNELS 3 Zrotation Xrotation Yrotation
            JOINT LeftLeg
            {
                OFFSET 0.0 0.0 -415.0292556303588
                CHANNELS 3 Zrotation Xrotation Yrotation
                JOINT LeftFoot
                {
                    OFFSET 0.0 0.0 -402.57522869067765
                    CHANNELS 3 Zrotation Xrotation Yrotation
                    End Site
                    {
                        OFFSET 0.0 -0.1 0.0
                    }
                }
            }
        }
    }
    JOINT LowerBack
    {
        OFFSET 0.0 0.0 0.1
        CHANNELS 3 Zrotation Xrotation Yrotation
        JOINT Spine
        {
            OFFSET 0.0 0.0 218.28685332951378
            CHANNELS 3 Zrotation Xrotation Yrotation
            JOINT Spine1
            {
                OFFSET 0.0 0.0 250.7816552870497
                CHANNELS 3 Zrotation Xrotation Yrotation
                JOINT LeftShoulder
                {
                    OFFSET 0.1 0.0 0.0
                    CHANNELS 3 Zrotation Xrotation Yrotation
                    JOINT LeftArm
                    {
                        OFFSET 146.308731771113 0.0 0.0
                        CHANNELS 3 Zrotation Xrotation Yrotation
                        JOINT LeftForeArm
                        {
                            OFFSET 269.4549182385999 0.0 0.0
                            CHANNELS 3 Zrotation Xrotation Yrotation
                            JOINT LeftHand
                            {
                                OFFSET 235.08476301753763 0.0 0.0
                                CHANNELS 3 Zrotation Xrotation Yrotation
                                End Site
                                {
                                    OFFSET 0.1 0.0 0.0
                                }
                            }
                        }
                    }
                }
                JOINT Neck
                {
                    OFFSET 0.0 0.0 0.1
                    CHANNELS 3 Zrotation Xrotation Yrotation
                    JOINT Neck1
                    {
                        OFFSET 0.0 0.0 107.69135131615717
                        CHANNELS 3 Zrotation Xrotation Yrotation
                        End Site
                        {
                            OFFSET 0.0 0.0 103.38771886749286
                        }
                    }
                }
                JOINT RightShoulder
                {
                    OFFSET -0.1 0.0 0.0
                    CHANNELS 3 Zrotation Xrotation Yrotation
                    JOINT RightArm
                    {
                        OFFSET -146.308731771113 0.0 0.0
                        CHANNELS 3 Zrotation Xrotation Yrotation
                        JOINT RightForeArm
                        {
                            OFFSET -269.4549182385999 0.0 0.0
                            CHANNELS 3 Zrotation Xrotation Yrotation
                            JOINT RightHand
                            {
                                OFFSET -235.08476301753763 0.0 0.0
                                CHANNELS 3 Zrotation Xrotation Yrotation
                                End Site
                                {
                                    OFFSET -0.1 0.0 0.0
                                }
                            }
                        }
                    }
                }
            }
        }
    }
    JOINT RightHipJoint
    {
        OFFSET -0.1 0.0 0.0
        CHANNELS 3 Zrotation Xrotation Yrotation
        JOINT RightUpLeg
        {
            OFFSET -126.05981600232468 0.0 0.0
            CHANNELS 3 Zrotation Xrotation Yrotation
            JOINT RightLeg
            {
                OFFSET 0.0 0.0 -415.0292556303588
                CHANNELS 3 Zrotation Xrotation Yrotation
                JOINT RightFoot
                {
                    OFFSET 0.0 0.0 -402.57522869067765
                    CHANNELS 3 Zrotation Xrotation Yrotation
                    End Site
                    {
                        OFFSET 0.0 -0.1 0.0
                    }
                }
            }
        }
    }
}
MOTION
Frames: 10
Frame Time: 0.03333333333333333
0.0 0.0 827.0238118181601 25.974268265709558 -6.79352820946158 0.8564650409762476 0.0 0.0 1.987846675914698e-16 0.2885339063709958 -4.79599986790902 4.380832777099729 0.5162356534174537 28.413035423525464 -3.1548052636735533 0.0 0.0 -3.975693351829396e-16 0.0 0.0 1.987846675914698e-16 -0.07600366207442232 1.2745320465339067 6.375105331204479 6.486690521341932 -1.0148245312326152e-15 -3.406994992989948e-16 0.0 0.0 -3.975693351829396e-16 -84.5909545283267 57.728936724084306 104.55311571876983 -89.75102630965942 -2.477305597137765e-14 -1.5689155005616053e-14 -3.1805546814635168e-15 -1.0483027457869126e-31 3.776908684237926e-15 0.0 0.0 -3.975693351829396e-16 -14.286106405766896 1.1555242735288997 -3.6938229762379526 0.0 0.0 -3.975693351829396e-16 24.553207268729967 -63.357543106298955 -15.491518879725827 125.00946731049284 -9.816847501261878e-15 -8.69484229455715e-15 0.0 0.0 0.0 0.0 0.0 1.987846675914698e-16 0.12991740791221718 -2.207991209916738 1.5035250454681708 -0.8779145905011387 24.693495560877473 -2.1495136400872776 0.0 0.0 0.0
0.0 0.0 827.0238118181601 25.997156261164395 -6.720707459678367 0.8795698645609635 0.0 0.0 0.0 0.28330864197298544 -4.84074174015442 4.339549139345153 0.5353768779459832 28.018599341129786 -3.0021006318074184 1.1034765745125397e-32 -3.1805546814635168e-15 3.975693351829396e-16 0.0 0.0 0.0 -0.07730490612328553 1.3327461745958804 6.3650509072307 6.50526421103228 2.2507814678515807e-15 1.0667201145941302e-15 0.0 0.0 3.975693351829396e-16 -84.19691318144518 57.72452816091154 104.05507646747004 -89.80700573534486 6.750753514383249e-15 2.2376253924505886e-15 0.0 0.0 2.33571984419977e-15 0.0 0.0 3.975693351829396e-16 -14.186803812901362 1.19943701552669 -3.8231311851473038 0.0 0.0 3.975693351829396e-16 25.16439747069934 -63.23900768981168 -14.639096680848345 124.39182824964489 -4.450706525371013e-15 8.440057118351468e-15 0.0 0.0 0.0 0.0 0.0 0.0 0.13206485463620027 -2.3068453401126403 1.439985206576228 -0.8609159354101118 24.605153064523865 -2.0495522975130647 0.0 0.0 0.0
0.0 0.0 827.0238118181601 25.992900461405938 -6.7159229728823595 0.9103590374056596 0.0 0.0 0.0 0.2716123676149982 -4.721537486950679 4.276333746602912 0.530179568762709 27.90687002158747 -2.951846319827142 0.0 0.0 -7.951386703658792e-16 0.0 0.0 0.0 -0.07564887214702562 1.3271953276042772 6.359192899812465 6.538786827483177 1.1227457877555408e-15 -1.2587877776168913e-15 0.0 0.0 0.0 -84.06950384802234 57.79975648216121 103.87674134604619 -89.84630030660848 -6.786184212339987e-15 -2.9227817282762705e-14 3.1805546814635164e-15 -5.931186588004901e-32 -2.1369351766083e-15 0.0 0.0 0.0 -14.147358038444754 1.1672911019583305 -3.913196650119861 0.0 0.0 0.0 25.50624970049525 -63.07848661997457 -14.047450206932972 123.89523838741331 4.118046954678399e-15 5.798390266958703e-15 -1.5902773407317584e-15 -3.1805546814635168e-15 -4.4139062980501586e-32 0.0 0.0 0.0 0.12471635530005826 -2.2191177149982755 1.339634490902339 -0.8790752897309076 24.57010918229895 -1.9165152891018689 0.0 0.0 3.975693351829396e-16
0.0 0.0 827.0238118181601 25.927653185050527 -6.650851391451293 0.9329554113153594 -4.310455369189608e-35 2.4848083448933722e-17 1.9878466759146977e-16 0.27036915606549805 -4.767888274265065 4.2588269003415125 0.547417452127407 27.991782670700744 -2.9200623438012414 0.0 0.0 -7.951386703658792e-16 -4.310455369189608e-35 2.4848083448933722e-17 1.9878466759146977e-16 -0.07626617300637198 1.357377367208612 6.353627081512624 6.549108077683084 1.4119301753802787e-15 3.1743726235514047e-16 3.4483642953516864e-34 1.9878466759146977e-16 -1.9878466759146977e-16 -83.80806348603043 57.84939488552071 103.62414655026059 -89.94586936749916 -4.24950473562736e-18 -8.995966129101723e-15 0.0 0.0 1.8387581752210955e-15 3.4483642953516864e-34 1.9878466759146977e-16 -1.9878466759146977e-16 -14.209231869404361 0.9703166875229035 -3.9817030669934206 3.4483642953516864e-34 1.9878466759146977e-16 -1.9878466759146977e-16 26.164052147332246 -63.10552511184185 -13.248525364378844 123.35518136770776 -1.072756882573135e-15 -1.1417366497315632e-14 0.0 0.0 0.0 -4.310455369189608e-35 2.4848083448933722e-17 1.9878466759146977e-16 0.13343208688210118 -2.405873356795455 1.3830009946894277 -0.8451028193278 24.749842738092948 -2.0877224136444514 3.1805546814635164e-15 0.0 0.0
0.0 0.0 827.0238118181601 25.931987398088502 -6.604858439183763 0.9633503599937551 0.0 0.0 0.0 0.2731276719619515 -4.847060113300832 4.258348230258058 0.5600867496159971 28.081075499904728 -3.011212382050169 0.0 0.0 0.0 0.0 0.0 0.0 -0.07636692394169482 1.367973714954653 6.377243613516894 6.551037177676376 6.802591813609213e-16 -2.0300313687799265e-15 0.0 0.0 0.0 -83.60738924455266 57.90592040722705 103.36667312130999 -89.95460931145314 2.246319072664966e-15 -6.747865664984676e-15 0.0 0.0 3.0811623476677818e-15 0.0 0.0 0.0 -14.20709300263775 0.8750801674431092 -4.118031407279275 0.0 0.0 0.0 26.537877606785475 -62.932324512895036 -12.75978604303276 122.93494012191344 1.6765582741908915e-14 9.115297376842273e-15 0.0 0.0 0.0 0.0 0.0 0.0 0.1359916450053058 -2.4678614588283416 1.3231694240473215 -0.8684414042518356 24.880882872038452 -2.0612021651310366 0.0 0.0 0.0
0.0 0.0 827.0238118181601 25.84862749503895 -6.496964250772346 0.9300323329525574 0.0 0.0 3.975693351829396e-16 0.26872521950875145 -4.806925753906124 4.343180076340809 0.6054818870470017 27.57596196807622 -3.085321902276257 0.0 0.0 3.975693351829396e-16 0.0 0.0 3.975693351829396e-16 -0.08029191124007522 1.4493434137255956 6.4820265402693495 6.543016659843863 5.953821355334886e-16 -3.4032474383196825e-17 0.0 0.0 9.93923337957349e-16 -83.34281606433962 57.93568185573558 103.0472182369528 -89.98424915793566 -4.4967470099913455e-15 8.996585304765845e-15 0.0 0.0 -1.9878466759146984e-15 0.0 0.0 9.93923337957349e-16 -14.210907981175833 0.693496357257642 -4.2836978582501075 0.0 0.0 9.93923337957349e-16 27.120603330651235 -63.06777265193689 -11.998455876927467 122.46429117967321 8.637360963318228e-15 -2.514641175910057e-15 0.0 0.0 0.0 0.0 0.0 3.975693351829396e-16 0.14574622320023392 -2.6612611500404664 1.3741170977285107 -0.8260178542918919 24.679621007805096 -2.136914982160904 3.1805546814635164e-15 -9.939233379573489e-17 2.758691436281349e-33
0.0 0.0 827.0238118181601 25.824750327093813 -6.365341938547356 0.8916927320233095 0.0 0.0 1.987846675914698e-16 0.27157887584221846 -4.898270206039718 4.335898546353698 0.6121987000443538 27.461726052833924 -3.062395674505372 0.0 0.0 3.975693351829396e-16 0.0 0.0 1.987846675914698e-16 -0.08031294637789074 1.4618108151513043 6.57492346114963 6.5866733159271735 -1.870366094784253e-16 2.0987614169723365e-16 0.0 0.0 -3.975693351829396e-16 -83.08464204147184 58.045217187047484 102.73260811135788 -90.08701412591473 -1.574123019107397e-14 -2.2609454031684656e-15 3.1805546814635168e-15 -6.3611093629270335e-15 3.876301018033661e-15 0.0 0.0 -3.975693351829396e-16 -14.273660644935411 0.49478170553249273 -4.393173986597202 0.0 0.0 -3.975693351829396e-16 27.587278484413336 -62.89471789142749 -11.413625189102541 121.93150110426187 5.561707148618303e-15 3.087252163352718e-15 0.0 0.0 0.0 0.0 0.0 1.987846675914698e-16 0.15196285169695556 -2.7965306733491087 1.3838304830298895 -0.8088240670561133 24.657012064534115 -2.1587756055034286 0.0 0.0 0.0
0.0 0.0 827.0238118181601 25.760938670527835 -6.117803752115523 0.9018491141621094 0.0 0.0 -1.987846675914698e-16 0.28244936848226093 -5.211110067939029 4.348018705078494 0.6551227930233147 27.483707567158202 -3.0663617216305585 0.0 0.0 -7.951386703658792e-16 0.0 0.0 -1.987846675914698e-16 -0.07677650867381484 1.4295678248618058 6.63583560140165 6.660603624102813 2.3813876000163612e-15 -1.385736067556926e-16 0.0 0.0 0.0 -82.72739330453652 58.11152044734438 102.36975690086764 -90.10552050566378 2.251061791269704e-15 -2.2469198681005794e-15 0.0 0.0 -2.0375428428125655e-15 0.0 0.0 0.0 -14.322507897683735 0.32840190008164677 -4.53475364342374 0.0 0.0 0.0 28.24386228114125 -62.66048245527234 -10.6081641451126 121.42430940068327 -7.103907491903172e-15 -3.378442768191713e-16 1.5902773407317582e-15 0.0 0.0 0.0 0.0 -1.987846675914698e-16 0.1665621202451981 -3.1318397075306748 1.4013804925256612 -0.7693795416925654 24.674533315064107 -2.2580133443461197 1.1034765745125397e-32 -3.1805546814635168e-15 3.975693351829396e-16
0.0 0.0 827.0238118181601 25.867838825975404 -6.113935279929707 0.8882625769512722 0.0 0.0 0.0 0.2827838724367018 -5.208922873559959 4.289691810723906 0.6216646818817192 27.4494313447116 -2.8852649167782465 0.0 0.0 -3.975693351829396e-16 0.0 0.0 0.0 -0.07710381927781876 1.4336913481700169 6.722575106251016 6.624751393754509 -1.8696685858860217e-16 2.0993828123620505e-16 -1.3793457181406746e-33 3.975693351829396e-16 3.975693351829396e-16 -82.60194795229653 58.250703294680115 102.18748696467648 -90.31569274390216 2.2923540384580715e-15 -1.573668691328808e-14 -3.1805546814635168e-15 -6.896728590703373e-34 2.4848083448933725e-17 -1.3793457181406746e-33 3.975693351829396e-16 3.975693351829396e-16 -14.357962241702374 0.3796081240946854 -4.703749888431584 -1.3793457181406746e-33 3.975693351829396e-16 3.975693351829396e-16 28.034559630815743 -62.329071942234165 -10.550589359994103 121.18540173710535 7.959578507865306e-15 1.1788285355076817e-14 0.0 0.0 0.0 0.0 0.0 0.0 0.15751161023478957 -2.9608267649808884 1.3701867680934634 -0.7787116482288667 24.48795554102884 -2.200515675496398 0.0 0.0 0.0
0.0 0.0 827.0238118181601 25.86296363054077 -6.085856320140989 0.8994323700768607 0.0 0.0 0.0 0.2782791446608451 -5.14155294579933 4.256248772465456 0.5995156778432323 27.07880700806821 -2.8572173341527454 0.0 0.0 -7.951386703658792e-16 0.0 0.0 0.0 -0.08181012074612107 1.5255842482110087 6.771932099674867 6.5809718231064345 9.466451499942827e-16 -8.508772337063665e-16 0.0 0.0 3.975693351829396e-16 -82.27513682504089 58.25344948534322 101.82804026062004 -90.33257791856698 -2.245065981137272e-14 -1.3559166036118124e-14 4.703568898859701e-31 -6.3611093629270335e-15 8.4731964560864e-15 0.0 0.0 3.975693351829396e-16 -14.365431822960005 0.3467065941608825 -4.926176872860964 0.0 0.0 3.975693351829396e-16 28.14822238774356 -62.27634631248315 -10.247027716090205 120.89283708997057 -3.1375362649463357e-15 5.533496048002977e-15 0.0 0.0 0.0 0.0 0.0 0.0 0.15748056570391158 -2.9680198292661544 1.319518955888906 -0.7883331061010802 24.23194791290576 -2.0973414321412123 0.0 0.0 0.0
